<svg id="Group_4443" data-name="Group 4443" xmlns="http://www.w3.org/2000/svg" xmlns:xlink="http://www.w3.org/1999/xlink" width="15.996" height="15.996" viewBox="0 0 15.996 15.996">
  <defs>
    <clipPath id="clip-path">
      <rect id="Rectangle_3651" data-name="Rectangle 3651" width="15.996" height="15.996" fill="#fff"/>
    </clipPath>
  </defs>
  <g id="Group_4294" data-name="Group 4294" clip-path="url(#clip-path)">
    <path id="Path_6975" data-name="Path 6975" d="M8,135.315c-1.487,0-2.974.011-4.461,0A3.423,3.423,0,0,1,.45,133.529,3.25,3.25,0,0,1,0,131.872c-.007-1.021,0-2.043,0-3.064a.734.734,0,0,1,.524-.734.7.7,0,0,1,.8.3,1,1,0,0,1,.125.465c.011.976.005,1.952.006,2.928a2.028,2.028,0,0,0,2.1,2.093h8.887a2.027,2.027,0,0,0,2.1-2.093c0-.993,0-1.986,0-2.979a.723.723,0,0,1,.495-.7.688.688,0,0,1,.791.238.834.834,0,0,1,.161.435c.007,1.135.033,2.271-.023,3.4a3.425,3.425,0,0,1-2.827,3.091,4.846,4.846,0,0,1-.745.06c-1.464.005-2.928,0-4.392,0" transform="translate(0 -119.322)" fill="#fff"/>
    <path id="Path_6976" data-name="Path 6976" d="M48.667,2.538v.2q0,4.4,0,8.8a.731.731,0,0,1-.57.8.721.721,0,0,1-.874-.638c-.006-.079,0-.159,0-.238q0-4.359,0-8.719V2.5c-.069.062-.113.1-.154.139q-1.458,1.456-2.914,2.914a.733.733,0,0,1-.707.239.723.723,0,0,1-.409-1.174c.036-.044.078-.083.118-.123l4.2-4.2a.738.738,0,0,1,1.172,0Q50.641,2.4,52.755,4.512A.746.746,0,0,1,53,5.233a.722.722,0,0,1-1.214.366c-.333-.317-.652-.648-.977-.973q-.987-.987-1.973-1.976a.989.989,0,0,1-.106-.155l-.065.044" transform="translate(-39.946 0)" fill="#fff"/>
  </g>
</svg>
