<svg xmlns="http://www.w3.org/2000/svg" width="16" height="16" viewBox="0 0 16 16">
  <path id="Path_7205" data-name="Path 7205" d="M3282.251,517.817a2.781,2.781,0,0,1,4.06,3.8l-.13.139-9.6,9.608a2.071,2.071,0,0,1-.73.462l-.16.053-4.06,1.106a.505.505,0,0,1-.63-.535l.02-.079,1.1-4.056a2.156,2.156,0,0,1,.4-.76l.12-.128Zm-.86,2.275-8.041,8.04a.91.91,0,0,0-.22.321l-.04.123-.88,3.212,3.21-.876a.844.844,0,0,0,.24-.1l.11-.072.1-.085,8.042-8.041Zm4.081-1.568a1.781,1.781,0,0,0-2.4-.109l-.12.109-.86.861,2.521,2.521.86-.86a1.777,1.777,0,0,0,.109-2.4Z" transform="translate(-3270.998 -517.002)" fill="#fff"/>
</svg>
